<svg width="306" height="345" viewBox="0 0 306 345" fill="none" xmlns="http://www.w3.org/2000/svg">
<path d="M302.107 258.262C304.508 254.103 306 249.417 306 245.209V99.14C306 94.932 304.51 90.247 302.108 86.088L153 172.175L302.107 258.262Z" fill="#000D17"/>
<path d="M166.25 341.193L292.75 268.159C296.394 266.055 299.706 262.422 302.107 258.262L153 172.175L3.89301 258.263C6.29401 262.422 9.60701 266.056 13.25 268.159L139.75 341.193C147.037 345.401 158.963 345.401 166.25 341.193Z" fill="#000B15"/>
<path d="M302.108 86.087C299.706 81.927 296.393 78.294 292.75 76.19L166.25 3.156C158.963 -1.052 147.037 -1.052 139.75 3.156L13.25 76.19C5.962 80.397 0 90.725 0 99.14V245.209C0 249.417 1.491 254.103 3.893 258.262L153 172.175L302.108 86.087Z" fill="#121C27"/>
<path d="M153 274.175C96.757 274.175 51 228.418 51 172.175C51 115.932 96.757 70.175 153 70.175C189.292 70.175 223.139 89.705 241.331 121.143L197.188 146.687C188.083 130.951 171.15 121.175 153 121.175C124.878 121.175 102 144.053 102 172.175C102 200.296 124.878 223.175 153 223.175C171.152 223.175 188.085 213.399 197.191 197.66L241.334 223.203C223.142 254.644 189.294 274.175 153 274.175Z" fill="white"/>
</svg>
