<svg width="96" height="96" viewBox="0 0 96 96" fill="none" xmlns="http://www.w3.org/2000/svg">
<path d="M90 32.4L80 37.9L70 47.4V80H84C87.314 80 90 77.314 90 74V32.4Z" fill="black"/>
<path d="M6 32.4L13.228 35.82L26 47.4V80H12C8.686 80 6 77.314 6 74V32.4Z" fill="black"/>
<path d="M70 22.4L48 38.9L26 22.4L24 34L26 47.4L48 63.9L70 47.4L72 34L70 22.4Z" fill="black"/>
<path d="M6 24.596V32.4L26 47.4V22.4L19.752 17.718C18.264 16.602 16.456 16 14.596 16C9.848 16 6 19.848 6 24.596Z" fill="black"/>
<path d="M90 24.596V32.4L70 47.4V22.4L76.248 17.718C77.736 16.602 79.544 16 81.404 16C86.152 16 90 19.848 90 24.596Z" fill="black"/>
</svg>
